<svg xmlns="http://www.w3.org/2000/svg" viewBox="0 0 600 500"><rect width="600" height="500" fill="#f5ebdc"/><ellipse cx="300" cy="436" rx="128" ry="14" fill="#deceba"/><path d="M236 195v-55q0-70 64-70t64 70v55" fill="none" stroke="#85624a" stroke-width="15"/><path d="M175 190h250l25 225q-150 30-300 0z" fill="#c69d72" stroke="#ac825a" stroke-width="4"/><path d="M166 235h268M162 272h276M158 309h284M154 346h292M151 383h298M208 197l-12 220M253 197l-6 227M300 197v235M347 197l6 227M392 197l12 220" stroke="#dfbd96" stroke-width="6"/><text x="300" y="478" text-anchor="middle" fill="#a1816e" font-family="sans-serif" font-size="12" letter-spacing="3">STOCKY · ILLUSTRATION DÉMO</text></svg>
